<svg xmlns="http://www.w3.org/2000/svg" viewBox="0 0 256 256" width="256" height="256" role="img" aria-label="소소킹 판결소 앱 아이콘">
  <defs>
    <linearGradient id="bg" x1="0" y1="0" x2="1" y2="1">
      <stop offset="0" stop-color="#24304f"/>
      <stop offset="0.55" stop-color="#141a2c"/>
      <stop offset="1" stop-color="#080b12"/>
    </linearGradient>
    <linearGradient id="gold" x1="0" y1="0" x2="1" y2="1">
      <stop offset="0" stop-color="#ffe7a3"/>
      <stop offset="0.48" stop-color="#c9a84c"/>
      <stop offset="1" stop-color="#8f6116"/>
    </linearGradient>
    <filter id="shadow" x="-25%" y="-25%" width="150%" height="150%">
      <feDropShadow dx="0" dy="10" stdDeviation="9" flood-color="#000" flood-opacity="0.38"/>
    </filter>
  </defs>

  <rect width="256" height="256" rx="58" fill="url(#bg)"/>
  <rect x="13" y="13" width="230" height="230" rx="48" fill="none" stroke="#c9a84c" stroke-width="4" opacity="0.75"/>
  <rect x="25" y="25" width="206" height="206" rx="38" fill="none" stroke="#c9a84c" stroke-width="1.5" opacity="0.26"/>

  <g filter="url(#shadow)">
    <rect x="67" y="42" width="122" height="156" rx="16" fill="#f7f1e4"/>
    <rect x="84" y="66" width="88" height="7" rx="3.5" fill="#c9a84c"/>
    <rect x="89" y="87" width="78" height="5" rx="2.5" fill="#141a2c" opacity="0.25"/>
    <rect x="89" y="105" width="62" height="5" rx="2.5" fill="#141a2c" opacity="0.2"/>
    <rect x="89" y="123" width="71" height="5" rx="2.5" fill="#141a2c" opacity="0.2"/>
  </g>

  <g transform="translate(128 137) rotate(-11)">
    <rect x="-7" y="-22" width="14" height="78" rx="7" fill="url(#gold)"/>
    <rect x="-43" y="45" width="86" height="14" rx="7" fill="url(#gold)"/>
    <line x1="-78" y1="-20" x2="78" y2="-20" stroke="url(#gold)" stroke-width="9" stroke-linecap="round"/>
    <circle cx="0" cy="-20" r="12" fill="#ffe7a3" stroke="#141a2c" stroke-width="3"/>

    <line x1="-58" y1="-17" x2="-72" y2="26" stroke="#c9a84c" stroke-width="4" stroke-linecap="round"/>
    <line x1="-86" y1="-17" x2="-72" y2="26" stroke="#c9a84c" stroke-width="4" stroke-linecap="round"/>
    <ellipse cx="-72" cy="36" rx="39" ry="11" fill="#e8c97a"/>
    <text x="-72" y="41" text-anchor="middle" font-size="15" font-family="Noto Sans KR, sans-serif" font-weight="900" fill="#141a2c">억울</text>

    <line x1="58" y1="-17" x2="72" y2="12" stroke="#c9a84c" stroke-width="4" stroke-linecap="round" opacity="0.48"/>
    <line x1="86" y1="-17" x2="72" y2="12" stroke="#c9a84c" stroke-width="4" stroke-linecap="round" opacity="0.48"/>
    <ellipse cx="72" cy="20" rx="30" ry="8" fill="#c9a84c" opacity="0.42"/>
    <text x="72" y="25" text-anchor="middle" font-size="18" font-family="sans-serif" font-weight="900" fill="#c9a84c">?</text>
  </g>

  <g transform="translate(171 178) rotate(-14)">
    <rect x="-36" y="-23" width="72" height="46" rx="6" fill="none" stroke="#e74c3c" stroke-width="5"/>
    <text x="0" y="9" text-anchor="middle" font-size="24" font-family="Noto Serif KR, serif" font-weight="900" fill="#e74c3c" letter-spacing="3">판결</text>
  </g>

  <text x="54" y="63" font-size="28" font-family="sans-serif" font-weight="900" fill="#e74c3c">!!</text>
  <path d="M194 59 C194 59 202 42 210 50 C218 59 205 72 194 59Z" fill="#4dabf7"/>
  <path d="M213 82 C213 82 219 72 224 78 C229 84 220 92 213 82Z" fill="#4dabf7" opacity="0.65"/>
</svg>
