<svg xmlns="http://www.w3.org/2000/svg" viewBox="0 0 256 256" width="256" height="256" role="img" aria-label="소소킹 황당재판소 앱 아이콘">
  <defs>
    <linearGradient id="bg" x1="0" y1="0" x2="1" y2="1">
      <stop offset="0" stop-color="#1f2b48"/>
      <stop offset="0.52" stop-color="#0f1a2d"/>
      <stop offset="1" stop-color="#05070c"/>
    </linearGradient>
    <linearGradient id="gold" x1="0" y1="0" x2="1" y2="1">
      <stop offset="0" stop-color="#fff1b8"/>
      <stop offset="0.22" stop-color="#f5d36b"/>
      <stop offset="0.54" stop-color="#c89833"/>
      <stop offset="0.78" stop-color="#8d5f19"/>
      <stop offset="1" stop-color="#f3d980"/>
    </linearGradient>
    <linearGradient id="goldSoft" x1="0" y1="0" x2="1" y2="1">
      <stop offset="0" stop-color="#fff6c9"/>
      <stop offset="0.48" stop-color="#d5a746"/>
      <stop offset="1" stop-color="#7a4d14"/>
    </linearGradient>
    <radialGradient id="glow" cx="50%" cy="42%" r="64%">
      <stop offset="0" stop-color="#f0c85a" stop-opacity="0.26"/>
      <stop offset="0.56" stop-color="#c9a84c" stop-opacity="0.08"/>
      <stop offset="1" stop-color="#000000" stop-opacity="0"/>
    </radialGradient>
    <filter id="shadow" x="-25%" y="-25%" width="150%" height="150%">
      <feDropShadow dx="0" dy="8" stdDeviation="8" flood-color="#000000" flood-opacity="0.44"/>
    </filter>
    <filter id="fineShadow" x="-35%" y="-35%" width="170%" height="170%">
      <feDropShadow dx="0" dy="3" stdDeviation="2.5" flood-color="#000000" flood-opacity="0.45"/>
    </filter>
  </defs>

  <rect width="256" height="256" rx="54" fill="url(#bg)"/>
  <rect width="256" height="256" rx="54" fill="url(#glow)"/>
  <rect x="9" y="9" width="238" height="238" rx="48" fill="none" stroke="url(#gold)" stroke-width="5.5"/>
  <rect x="18" y="18" width="220" height="220" rx="40" fill="none" stroke="#ffffff" stroke-opacity="0.09" stroke-width="1"/>

  <g filter="url(#shadow)">
    <path d="M128 25 C139 48 167 48 190 63 C207 74 216 92 224 116 C212 124 210 144 221 158 C207 177 199 199 185 222 C164 213 147 218 128 235 C109 218 92 213 71 222 C57 199 49 177 35 158 C46 144 44 124 32 116 C40 92 49 74 66 63 C89 48 117 48 128 25Z" fill="#0b1426" fill-opacity="0.58" stroke="url(#gold)" stroke-width="3.4"/>
    <path d="M128 41 C140 59 164 60 184 73 C198 82 205 98 211 116 C200 126 199 144 208 157 C195 174 188 194 178 210 C158 203 143 209 128 222 C113 209 98 203 78 210 C68 194 61 174 48 157 C57 144 56 126 45 116 C51 98 58 82 72 73 C92 60 116 59 128 41Z" fill="none" stroke="#f4d46f" stroke-width="1.8" stroke-opacity="0.7"/>
  </g>

  <g filter="url(#fineShadow)">
    <path d="M112 74 L128 40 L144 74 Z" fill="url(#gold)"/>
    <path d="M91 78 L105 60 L119 88 L137 88 L151 60 L165 78 L159 100 L97 100 Z" fill="url(#gold)"/>
    <circle cx="105" cy="59" r="5.5" fill="#ffeaa4"/>
    <circle cx="151" cy="59" r="5.5" fill="#ffeaa4"/>
    <path d="M128 45 L134 56 L128 66 L122 56 Z" fill="#0d1830" opacity="0.9"/>
  </g>

  <g filter="url(#fineShadow)">
    <path d="M54 118 C83 119 103 111 121 101 C126 98 130 98 135 101 C153 111 173 119 202 118" fill="none" stroke="url(#gold)" stroke-width="8" stroke-linecap="round"/>
    <circle cx="54" cy="118" r="7" fill="url(#goldSoft)"/>
    <circle cx="202" cy="118" r="7" fill="url(#goldSoft)"/>
    <path d="M54 126 L35 169 L73 169 Z" fill="none" stroke="url(#gold)" stroke-width="4.2" stroke-linejoin="round"/>
    <path d="M202 126 L183 169 L221 169 Z" fill="none" stroke="url(#gold)" stroke-width="4.2" stroke-linejoin="round"/>
    <path d="M28 169 H80 C76 185 64 192 54 192 C44 192 32 185 28 169Z" fill="url(#goldSoft)"/>
    <path d="M176 169 H228 C224 185 212 192 202 192 C192 192 180 185 176 169Z" fill="url(#goldSoft)"/>
  </g>

  <g filter="url(#fineShadow)">
    <path d="M128 93 C140 106 147 131 145 160 C143 181 137 197 128 212 C119 197 113 181 111 160 C109 131 116 106 128 93Z" fill="url(#gold)"/>
    <path d="M111 98 C121 96 127 101 128 108 C129 101 135 96 145 98 L145 141 C136 138 130 140 128 147 C126 140 120 138 111 141 Z" fill="#f3cf70"/>
    <path d="M116 110 C122 109 125 112 125 119 L125 135 C121 131 118 130 116 131 Z" fill="#0d1830" opacity="0.9"/>
    <path d="M135 112 C140 111 143 113 144 118 C139 117 136 119 135 124 C139 122 143 124 145 129 C141 134 137 134 134 131" fill="none" stroke="#0d1830" stroke-width="5" stroke-linecap="round"/>
    <path d="M103 151 C112 160 122 160 128 154 C134 160 144 160 153 151 C149 166 136 170 128 162 C120 170 107 166 103 151Z" fill="#0d1830" opacity="0.86"/>
    <path d="M79 207 H177 C181 207 184 211 184 215 V222 H72 V215 C72 211 75 207 79 207Z" fill="url(#goldSoft)"/>
    <path d="M68 222 H188 C193 222 197 226 197 231 V238 H59 V231 C59 226 63 222 68 222Z" fill="url(#gold)"/>
  </g>

  <g transform="translate(153 168) rotate(-34)" filter="url(#fineShadow)">
    <rect x="-13" y="-10" width="52" height="28" rx="8" fill="url(#goldSoft)"/>
    <rect x="-16" y="-14" width="12" height="36" rx="4" fill="url(#gold)"/>
    <rect x="35" y="-14" width="12" height="36" rx="4" fill="url(#gold)"/>
    <rect x="42" y="1" width="58" height="10" rx="5" fill="url(#goldSoft)"/>
    <circle cx="105" cy="6" r="6" fill="url(#gold)"/>
    <rect x="-20" y="-1" width="70" height="5" rx="2.5" fill="#0d1830" fill-opacity="0.55"/>
  </g>

  <path d="M46 50 C59 39 75 33 94 32" fill="none" stroke="#fff0b6" stroke-width="3" stroke-linecap="round" stroke-opacity="0.22"/>
</svg>
