<svg xmlns="http://www.w3.org/2000/svg" viewBox="0 0 512 512" width="512" height="512" role="img" aria-label="소소킹 소소분쟁위원회 앱 아이콘">
  <defs>
    <linearGradient id="bg" x1="64" y1="34" x2="450" y2="480" gradientUnits="userSpaceOnUse">
      <stop offset="0" stop-color="#26365f"/>
      <stop offset="0.52" stop-color="#151b31"/>
      <stop offset="1" stop-color="#080b12"/>
    </linearGradient>
    <linearGradient id="gold" x1="145" y1="88" x2="390" y2="430" gradientUnits="userSpaceOnUse">
      <stop offset="0" stop-color="#fff0b8"/>
      <stop offset="0.45" stop-color="#d4b55c"/>
      <stop offset="1" stop-color="#8b5b12"/>
    </linearGradient>
    <linearGradient id="red" x1="120" y1="120" x2="410" y2="380" gradientUnits="userSpaceOnUse">
      <stop offset="0" stop-color="#ff9a8f"/>
      <stop offset="1" stop-color="#e74c3c"/>
    </linearGradient>
    <filter id="shadow" x="-25%" y="-25%" width="150%" height="150%">
      <feDropShadow dx="0" dy="18" stdDeviation="18" flood-color="#000" flood-opacity="0.35"/>
    </filter>
  </defs>

  <rect width="512" height="512" rx="116" fill="url(#bg)"/>
  <rect x="24" y="24" width="464" height="464" rx="98" fill="none" stroke="#d4b55c" stroke-width="8" opacity="0.70"/>
  <rect x="48" y="48" width="416" height="416" rx="82" fill="none" stroke="#fff0b8" stroke-width="2" opacity="0.14"/>
  <circle cx="256" cy="260" r="176" fill="#d4b55c" opacity="0.075"/>

  <g filter="url(#shadow)">
    <path d="M154 130h184c21 0 38 17 38 38v178c0 21-17 38-38 38H154c-21 0-38-17-38-38V168c0-21 17-38 38-38z" fill="#fff7e8"/>
    <path d="M150 186h114" stroke="#b28a2e" stroke-width="14" stroke-linecap="round"/>
    <path d="M150 232h168M150 274h132" stroke="#1a2035" stroke-width="10" stroke-linecap="round" opacity="0.18"/>
    <rect x="132" y="326" width="122" height="34" rx="17" fill="url(#red)" opacity="0.92"/>
    <path d="M162 343h62" stroke="#fff7e8" stroke-width="8" stroke-linecap="round" opacity="0.92"/>
  </g>

  <g transform="translate(301 242) rotate(-10)" filter="url(#shadow)">
    <path d="M-24-42L84-82v154L-24 32z" fill="url(#gold)"/>
    <rect x="-75" y="-44" width="64" height="82" rx="14" fill="#fff0b8" stroke="#12182b" stroke-width="7"/>
    <rect x="-64" y="31" width="30" height="75" rx="14" fill="url(#gold)"/>
    <path d="M91-46c30 18 30 72 0 90" fill="none" stroke="#ff7166" stroke-width="14" stroke-linecap="round"/>
    <path d="M121-72c50 32 50 120 0 152" fill="none" stroke="#ff7166" stroke-width="10" stroke-linecap="round" opacity="0.75"/>
  </g>

  <g transform="translate(151 124) rotate(-9)">
    <path d="M0 0c-18 18-17 45 4 58 11-20 9-39-4-58z" fill="#4dabf7" opacity="0.90"/>
  </g>
  <g transform="translate(372 364) rotate(-8)">
    <rect x="-56" y="-30" width="112" height="60" rx="10" fill="none" stroke="#ff7166" stroke-width="8"/>
    <path d="M-30 0h60" stroke="#ff7166" stroke-width="7" stroke-linecap="round"/>
  </g>
</svg>
