<svg xmlns="http://www.w3.org/2000/svg" viewBox="0 0 512 512" width="512" height="512" role="img" aria-label="소소킹 판결소 앱 아이콘">
  <defs>
    <linearGradient id="bg" x1="70" y1="38" x2="440" y2="474" gradientUnits="userSpaceOnUse">
      <stop offset="0" stop-color="#26365f"/>
      <stop offset="0.52" stop-color="#151b31"/>
      <stop offset="1" stop-color="#080b12"/>
    </linearGradient>
    <linearGradient id="gold" x1="148" y1="92" x2="382" y2="410" gradientUnits="userSpaceOnUse">
      <stop offset="0" stop-color="#fff0b8"/>
      <stop offset="0.45" stop-color="#d4b55c"/>
      <stop offset="1" stop-color="#8b5b12"/>
    </linearGradient>
    <filter id="shadow" x="-25%" y="-25%" width="150%" height="150%">
      <feDropShadow dx="0" dy="18" stdDeviation="18" flood-color="#000" flood-opacity="0.34"/>
    </filter>
  </defs>

  <rect width="512" height="512" rx="116" fill="url(#bg)"/>
  <rect x="24" y="24" width="464" height="464" rx="98" fill="none" stroke="#d4b55c" stroke-width="8" opacity="0.70"/>
  <rect x="48" y="48" width="416" height="416" rx="82" fill="none" stroke="#fff0b8" stroke-width="2" opacity="0.14"/>
  <circle cx="256" cy="258" r="176" fill="#d4b55c" opacity="0.075"/>

  <g filter="url(#shadow)">
    <path d="M171 137l30-43 39 36 16-55 16 55 39-36 30 43H171z" fill="url(#gold)"/>
    <path d="M176 150h160" stroke="#fff0b8" stroke-width="10" stroke-linecap="round" opacity="0.9"/>
  </g>

  <g transform="translate(256 276) rotate(-7)" filter="url(#shadow)">
    <rect x="-13" y="-88" width="26" height="172" rx="13" fill="url(#gold)"/>
    <rect x="-92" y="64" width="184" height="28" rx="14" fill="url(#gold)"/>
    <rect x="-62" y="92" width="124" height="28" rx="14" fill="#8b5b12" opacity="0.85"/>
    <line x1="-126" y1="-78" x2="126" y2="-78" stroke="url(#gold)" stroke-width="20" stroke-linecap="round"/>
    <circle cx="0" cy="-78" r="22" fill="#fff0b8" stroke="#12182b" stroke-width="6"/>

    <path d="M-84-70l-42 91M-53-70l-73 91" stroke="#f0d483" stroke-width="8" stroke-linecap="round"/>
    <ellipse cx="-105" cy="43" rx="58" ry="18" fill="#f0d483"/>
    <circle cx="-124" cy="39" r="4" fill="#12182b" opacity="0.78"/>
    <circle cx="-91" cy="39" r="4" fill="#12182b" opacity="0.78"/>
    <path d="M-119 50q14 10 28 0" fill="none" stroke="#12182b" stroke-width="5" stroke-linecap="round" opacity="0.72"/>

    <path d="M84-70l25 64M53-70l56 64" stroke="#b88924" stroke-width="8" stroke-linecap="round" opacity="0.78"/>
    <ellipse cx="109" cy="16" rx="49" ry="15" fill="#b88924" opacity="0.68"/>
    <circle cx="96" cy="13" r="3.5" fill="#fff0b8" opacity="0.86"/>
    <circle cx="122" cy="13" r="3.5" fill="#fff0b8" opacity="0.86"/>
    <path d="M100 23q9 -6 18 0" fill="none" stroke="#fff0b8" stroke-width="4" stroke-linecap="round" opacity="0.84"/>
  </g>

  <path d="M384 166c15 11 12 31-6 36 8-14 3-23-9-31 6-1 11-3 15-5z" fill="#4dabf7" opacity="0.85"/>
  <g transform="translate(359 374) rotate(-10)">
    <rect x="-58" y="-31" width="116" height="62" rx="10" fill="none" stroke="#ff7166" stroke-width="8"/>
    <path d="M-31 0h62" stroke="#ff7166" stroke-width="7" stroke-linecap="round"/>
  </g>
</svg>
