<svg xmlns="http://www.w3.org/2000/svg" viewBox="0 0 512 512" width="512" height="512" role="img" aria-label="소소킹 판결소 앱 아이콘">
  <defs>
    <linearGradient id="bg" x1="74" y1="38" x2="438" y2="474" gradientUnits="userSpaceOnUse">
      <stop offset="0" stop-color="#26365f"/>
      <stop offset="0.48" stop-color="#151b31"/>
      <stop offset="1" stop-color="#080b12"/>
    </linearGradient>
    <linearGradient id="gold" x1="148" y1="96" x2="370" y2="414" gradientUnits="userSpaceOnUse">
      <stop offset="0" stop-color="#fff0b8"/>
      <stop offset="0.42" stop-color="#d4b55c"/>
      <stop offset="1" stop-color="#8b5b12"/>
    </linearGradient>
    <linearGradient id="paper" x1="171" y1="126" x2="328" y2="358" gradientUnits="userSpaceOnUse">
      <stop offset="0" stop-color="#fffaf0"/>
      <stop offset="1" stop-color="#eadfc9"/>
    </linearGradient>
    <filter id="softShadow" x="-25%" y="-25%" width="150%" height="150%">
      <feDropShadow dx="0" dy="18" stdDeviation="18" flood-color="#000000" flood-opacity="0.38"/>
    </filter>
    <filter id="innerGlow" x="-20%" y="-20%" width="140%" height="140%">
      <feDropShadow dx="0" dy="0" stdDeviation="10" flood-color="#d4b55c" flood-opacity="0.20"/>
    </filter>
  </defs>

  <rect width="512" height="512" rx="116" fill="url(#bg)"/>
  <rect x="23" y="23" width="466" height="466" rx="98" fill="none" stroke="#d4b55c" stroke-width="8" opacity="0.72"/>
  <rect x="43" y="43" width="426" height="426" rx="82" fill="none" stroke="#fff0b8" stroke-width="2" opacity="0.16"/>
  <circle cx="256" cy="246" r="176" fill="#d4b55c" opacity="0.075"/>

  <g filter="url(#softShadow)">
    <path d="M160 152c0-19 15-34 34-34h118c12 0 24 5 32 14l34 38c7 8 11 18 11 29v139c0 19-15 34-34 34H194c-19 0-34-15-34-34V152z" fill="url(#paper)"/>
    <path d="M318 121v53c0 13 11 24 24 24h47" fill="#d8caad" opacity="0.92"/>
    <path d="M198 193h116" stroke="#b28a2e" stroke-width="12" stroke-linecap="round"/>
    <path d="M198 232h126M198 268h96" stroke="#1a2035" stroke-width="10" stroke-linecap="round" opacity="0.20"/>
  </g>

  <g filter="url(#innerGlow)">
    <path d="M169 140l32-46 39 37 17-57 17 57 39-37 32 46H169z" fill="url(#gold)"/>
    <path d="M173 151h168" stroke="#fff0b8" stroke-width="10" stroke-linecap="round" opacity="0.85"/>
  </g>

  <g transform="translate(260 302) rotate(-9)" filter="url(#softShadow)">
    <rect x="-12" y="-72" width="24" height="144" rx="12" fill="url(#gold)"/>
    <rect x="-83" y="52" width="166" height="26" rx="13" fill="url(#gold)"/>
    <line x1="-122" y1="-64" x2="122" y2="-64" stroke="url(#gold)" stroke-width="18" stroke-linecap="round"/>
    <circle cx="0" cy="-64" r="20" fill="#fff0b8" stroke="#12182b" stroke-width="6"/>
    <path d="M-82-58l-32 70M-52-58l-62 70" stroke="#f0d483" stroke-width="8" stroke-linecap="round"/>
    <ellipse cx="-83" cy="30" rx="54" ry="16" fill="#f0d483"/>
    <path d="M82-58l32 70M52-58l62 70" stroke="#b88924" stroke-width="8" stroke-linecap="round" opacity="0.68"/>
    <ellipse cx="83" cy="30" rx="54" ry="16" fill="#b88924" opacity="0.60"/>
  </g>

  <g transform="translate(344 380) rotate(-12)">
    <rect x="-66" y="-37" width="132" height="74" rx="10" fill="none" stroke="#ff7166" stroke-width="9"/>
    <path d="M-38 0h76" stroke="#ff7166" stroke-width="8" stroke-linecap="round"/>
  </g>
</svg>
