<svg xmlns="http://www.w3.org/2000/svg" viewBox="0 0 1024 1024" role="img" aria-label="소소킹 황당재판소 로고">
  <defs>
    <linearGradient id="bg" x1="180" y1="90" x2="850" y2="930" gradientUnits="userSpaceOnUse">
      <stop offset="0" stop-color="#fff8e8"/>
      <stop offset="0.55" stop-color="#f1dba4"/>
      <stop offset="1" stop-color="#c99f38"/>
    </linearGradient>
    <linearGradient id="gold" x1="180" y1="170" x2="820" y2="820" gradientUnits="userSpaceOnUse">
      <stop offset="0" stop-color="#f8dd86"/>
      <stop offset="0.45" stop-color="#c99a2e"/>
      <stop offset="1" stop-color="#7f570b"/>
    </linearGradient>
    <filter id="shadow" x="-20%" y="-20%" width="140%" height="140%">
      <feDropShadow dx="0" dy="20" stdDeviation="28" flood-color="#5a3a05" flood-opacity="0.24"/>
    </filter>
  </defs>
  <rect x="56" y="56" width="912" height="912" rx="226" fill="url(#bg)"/>
  <circle cx="512" cy="512" r="346" fill="#fffaf0" opacity="0.74"/>
  <path d="M328 284l58 70 74-98 52 92 74-92 74 98 58-70-28 166H356l-28-166z" fill="url(#gold)" filter="url(#shadow)"/>
  <rect x="340" y="438" width="344" height="46" rx="23" fill="#7f570b" opacity="0.92"/>
  <path d="M512 314v348" stroke="#5d4109" stroke-width="42" stroke-linecap="round"/>
  <path d="M300 650h424" stroke="#5d4109" stroke-width="46" stroke-linecap="round"/>
  <path d="M388 682h248" stroke="#5d4109" stroke-width="38" stroke-linecap="round" opacity="0.92"/>
  <path d="M350 446l-96 180m0 0h192m0 0l-96-180" fill="none" stroke="#5d4109" stroke-width="24" stroke-linecap="round" stroke-linejoin="round"/>
  <path d="M674 446l-96 180m0 0h192m0 0l-96-180" fill="none" stroke="#5d4109" stroke-width="24" stroke-linecap="round" stroke-linejoin="round"/>
  <path d="M254 626c10 52 51 86 96 86s86-34 96-86H254z" fill="#c99a2e" opacity="0.88"/>
  <path d="M578 626c10 52 51 86 96 86s86-34 96-86H578z" fill="#c99a2e" opacity="0.88"/>
  <circle cx="512" cy="512" r="74" fill="#fff6dc" stroke="#7f570b" stroke-width="26"/>
  <text x="512" y="548" text-anchor="middle" font-family="Arial, sans-serif" font-size="84" font-weight="900" fill="#7f570b">소</text>
</svg>
