<svg xmlns="http://www.w3.org/2000/svg" viewBox="0 0 512 512" role="img" aria-label="소소킹 로고">
  <defs>
    <linearGradient id="bg" x1="0" y1="0" x2="1" y2="1">
      <stop offset="0" stop-color="#7C5CFF"/>
      <stop offset="0.52" stop-color="#4F7CFF"/>
      <stop offset="1" stop-color="#FF7AB6"/>
    </linearGradient>
    <linearGradient id="face" x1="0" y1="0" x2="1" y2="1">
      <stop offset="0" stop-color="#FFF7B8"/>
      <stop offset="1" stop-color="#FFD05A"/>
    </linearGradient>
    <filter id="shadow" x="-20%" y="-20%" width="140%" height="140%">
      <feDropShadow dx="0" dy="18" stdDeviation="18" flood-color="#15215A" flood-opacity="0.28"/>
    </filter>
  </defs>
  <rect width="512" height="512" rx="128" fill="url(#bg)"/>
  <circle cx="88" cy="98" r="10" fill="#fff" opacity=".55"/>
  <circle cx="426" cy="112" r="8" fill="#fff" opacity=".48"/>
  <circle cx="438" cy="392" r="13" fill="#fff" opacity=".30"/>
  <path d="M78 392c88-32 175-32 262 0" fill="none" stroke="#fff" stroke-width="18" stroke-linecap="round" opacity=".16"/>
  <g filter="url(#shadow)">
    <path d="M112 158c0-38 31-68 69-68h150c38 0 69 30 69 68v112c0 38-31 68-69 68h-66l-58 58c-10 10-27 3-27-11v-47h-49c-38 0-69-30-69-68V158z" fill="#fff" opacity=".96"/>
    <circle cx="184" cy="211" r="46" fill="url(#face)"/>
    <circle cx="330" cy="211" r="46" fill="#EAF0FF"/>
    <path d="M157 203q12-13 25 0M199 203q12-13 25 0M175 235q18 18 38 0" fill="none" stroke="#1B2250" stroke-width="8" stroke-linecap="round"/>
    <path d="M304 204h52M304 232h38" stroke="#1B2250" stroke-width="13" stroke-linecap="round"/>
    <path d="M160 139l15-30 22 25 22-30 19 35" fill="#FFE76B" stroke="#1B2250" stroke-width="7" stroke-linejoin="round"/>
    <text x="256" y="306" text-anchor="middle" font-family="Arial, sans-serif" font-size="54" font-weight="900" fill="#1B2250">SOSO</text>
  </g>
</svg>
