<svg xmlns="http://www.w3.org/2000/svg" viewBox="0 0 512 512">
  <defs>
    <linearGradient id="b" x1="0" y1="0" x2="1" y2="1">
      <stop offset="0" stop-color="#6FA0FF"/>
      <stop offset="1" stop-color="#2556E8"/>
    </linearGradient>
    <linearGradient id="c" x1="0" y1="0" x2="1" y2="1">
      <stop offset="0" stop-color="#FFF38A"/>
      <stop offset="1" stop-color="#FFB020"/>
    </linearGradient>
  </defs>
  <rect width="512" height="512" rx="112" fill="url(#b)"/>
  <path d="M70 110h372M42 220h428M70 402h372" stroke="#ffffff" stroke-width="16" opacity=".13"/>
  <circle cx="170" cy="246" r="94" fill="#6B3B00" opacity=".28"/>
  <circle cx="166" cy="236" r="94" fill="url(#c)" stroke="#6B3B00" stroke-width="10"/>
  <circle cx="166" cy="236" r="68" fill="none" stroke="#FFF6B6" stroke-width="9" opacity=".75"/>
  <path d="M102 150l24-50 35 41 34-49 31 58z" fill="#FFE767" stroke="#6B3B00" stroke-width="8" stroke-linejoin="round"/>
  <path d="M122 226q16-17 32 0M180 226q16-17 32 0" fill="none" stroke="#2B1800" stroke-width="9" stroke-linecap="round"/>
  <path d="M145 263q22 25 45 0" fill="none" stroke="#2B1800" stroke-width="10" stroke-linecap="round"/>
  <rect x="218" y="192" width="226" height="120" rx="30" fill="#102B72"/>
  <text x="331" y="270" text-anchor="middle" font-family="Arial, sans-serif" font-size="72" font-weight="900" fill="#fff">SSK</text>
  <path d="M365 176l16-38 24 31 24-34 20 41z" fill="#FFE767" stroke="#102B72" stroke-width="7" stroke-linejoin="round"/>
  <circle cx="78" cy="160" r="8" fill="#FFF3A3"/><circle cx="430" cy="112" r="8" fill="#FFF3A3"/><circle cx="430" cy="374" r="7" fill="#FFF3A3"/>
</svg>
