<svg xmlns="http://www.w3.org/2000/svg" viewBox="0 0 512 512" role="img" aria-label="소소킹 로고">
  <defs>
    <linearGradient id="bg" x1="0" y1="0" x2="1" y2="1">
      <stop offset="0" stop-color="#FFE85C"/>
      <stop offset="0.45" stop-color="#FF7A59"/>
      <stop offset="1" stop-color="#7C5CFF"/>
    </linearGradient>
    <linearGradient id="crown" x1="0" y1="0" x2="1" y2="1">
      <stop offset="0" stop-color="#FFF27A"/>
      <stop offset="1" stop-color="#FFB800"/>
    </linearGradient>
    <filter id="pop" x="-30%" y="-30%" width="160%" height="160%">
      <feDropShadow dx="0" dy="14" stdDeviation="10" flood-color="#3B246D" flood-opacity=".32"/>
    </filter>
  </defs>
  <rect width="512" height="512" rx="116" fill="url(#bg)"/>
  <path d="M54 126c40-46 96-70 170-70 104 0 190 50 238 132" fill="none" stroke="#fff" stroke-width="22" stroke-linecap="round" opacity=".22"/>
  <path d="M67 394c88 42 190 54 330 10" fill="none" stroke="#fff" stroke-width="28" stroke-linecap="round" opacity=".18"/>
  <circle cx="74" cy="84" r="14" fill="#fff" opacity=".75"/>
  <circle cx="438" cy="104" r="10" fill="#fff" opacity=".55"/>
  <circle cx="425" cy="363" r="18" fill="#fff" opacity=".28"/>
  <g filter="url(#pop)">
    <path d="M122 170c0-39 32-70 71-70h126c39 0 71 31 71 70v106c0 39-32 70-71 70h-34l-58 55c-13 12-34 3-34-15v-40h0c-39 0-71-31-71-70V170z" fill="#fff" stroke="#1B2250" stroke-width="14" stroke-linejoin="round"/>
    <path d="M151 132l26-48 34 42 45-56 41 56 37-42 28 48" fill="url(#crown)" stroke="#1B2250" stroke-width="13" stroke-linejoin="round"/>
    <circle cx="201" cy="218" r="35" fill="#FFE85C" stroke="#1B2250" stroke-width="10"/>
    <circle cx="311" cy="218" r="35" fill="#A9F2FF" stroke="#1B2250" stroke-width="10"/>
    <path d="M184 210q12-12 24 0M296 210q12-12 24 0" fill="none" stroke="#1B2250" stroke-width="8" stroke-linecap="round"/>
    <path d="M218 260q38 34 76 0" fill="none" stroke="#1B2250" stroke-width="12" stroke-linecap="round"/>
    <path d="M145 309c54 34 169 38 222 0" fill="none" stroke="#FF7A59" stroke-width="12" stroke-linecap="round" opacity=".78"/>
    <text x="256" y="382" text-anchor="middle" font-family="Arial Black, Arial, sans-serif" font-size="54" font-weight="900" fill="#1B2250" stroke="#fff" stroke-width="4" paint-order="stroke">SOSO</text>
  </g>
  <g fill="#1B2250" opacity=".9">
    <path d="M78 242l20 12-20 12-12 20-12-20-20-12 20-12 12-20z"/>
    <path d="M439 235l15 9-15 9-9 15-9-15-15-9 15-9 9-15z"/>
  </g>
</svg>
