<svg xmlns="http://www.w3.org/2000/svg" viewBox="0 0 512 512" width="512" height="512" role="img" aria-label="소소킹 판결소 마스커블 앱 아이콘">
  <defs>
    <linearGradient id="bg" x1="64" y1="40" x2="448" y2="472" gradientUnits="userSpaceOnUse">
      <stop offset="0" stop-color="#26365f"/>
      <stop offset="0.5" stop-color="#151b31"/>
      <stop offset="1" stop-color="#080b12"/>
    </linearGradient>
    <linearGradient id="gold" x1="130" y1="88" x2="388" y2="418" gradientUnits="userSpaceOnUse">
      <stop offset="0" stop-color="#fff0b8"/>
      <stop offset="0.45" stop-color="#d4b55c"/>
      <stop offset="1" stop-color="#8b5b12"/>
    </linearGradient>
    <filter id="shadow" x="-25%" y="-25%" width="150%" height="150%">
      <feDropShadow dx="0" dy="18" stdDeviation="18" flood-color="#000" flood-opacity="0.34"/>
    </filter>
  </defs>

  <rect width="512" height="512" fill="url(#bg)"/>
  <circle cx="256" cy="256" r="218" fill="#d4b55c" opacity="0.08"/>
  <circle cx="256" cy="256" r="184" fill="none" stroke="#d4b55c" stroke-width="8" opacity="0.46"/>

  <g filter="url(#shadow)">
    <path d="M170 158c0-18 15-33 33-33h112c12 0 23 5 31 14l32 36c7 8 10 18 10 28v132c0 18-15 33-33 33H203c-18 0-33-15-33-33V158z" fill="#fff7e8"/>
    <path d="M321 129v51c0 12 10 22 22 22h45" fill="#dac9a8"/>
    <path d="M205 199h104" stroke="#b28a2e" stroke-width="12" stroke-linecap="round"/>
    <path d="M205 236h120M205 272h86" stroke="#1a2035" stroke-width="10" stroke-linecap="round" opacity="0.20"/>
  </g>

  <path d="M154 142l33-47 41 39 18-60 18 60 41-39 33 47H154z" fill="url(#gold)" filter="url(#shadow)"/>
  <path d="M159 154h174" stroke="#fff0b8" stroke-width="10" stroke-linecap="round" opacity="0.88"/>

  <g transform="translate(256 305) rotate(-9)" filter="url(#shadow)">
    <rect x="-12" y="-68" width="24" height="138" rx="12" fill="url(#gold)"/>
    <rect x="-80" y="50" width="160" height="26" rx="13" fill="url(#gold)"/>
    <line x1="-118" y1="-60" x2="118" y2="-60" stroke="url(#gold)" stroke-width="18" stroke-linecap="round"/>
    <circle cx="0" cy="-60" r="20" fill="#fff0b8" stroke="#12182b" stroke-width="6"/>
    <path d="M-80-54l-30 67M-51-54l-59 67" stroke="#f0d483" stroke-width="8" stroke-linecap="round"/>
    <ellipse cx="-80" cy="30" rx="52" ry="16" fill="#f0d483"/>
    <path d="M80-54l30 67M51-54l59 67" stroke="#b88924" stroke-width="8" stroke-linecap="round" opacity="0.68"/>
    <ellipse cx="80" cy="30" rx="52" ry="16" fill="#b88924" opacity="0.62"/>
  </g>
</svg>
