<svg xmlns="http://www.w3.org/2000/svg" viewBox="0 0 512 512" width="512" height="512" role="img" aria-label="소소킹 소소분쟁위원회 마스커블 앱 아이콘">
  <defs>
    <linearGradient id="bg" x1="64" y1="40" x2="448" y2="472" gradientUnits="userSpaceOnUse">
      <stop offset="0" stop-color="#26365f"/>
      <stop offset="0.52" stop-color="#151b31"/>
      <stop offset="1" stop-color="#080b12"/>
    </linearGradient>
    <linearGradient id="gold" x1="134" y1="86" x2="390" y2="420" gradientUnits="userSpaceOnUse">
      <stop offset="0" stop-color="#fff0b8"/>
      <stop offset="0.45" stop-color="#d4b55c"/>
      <stop offset="1" stop-color="#8b5b12"/>
    </linearGradient>
    <linearGradient id="red" x1="120" y1="120" x2="410" y2="380" gradientUnits="userSpaceOnUse">
      <stop offset="0" stop-color="#ff9a8f"/>
      <stop offset="1" stop-color="#e74c3c"/>
    </linearGradient>
    <filter id="shadow" x="-25%" y="-25%" width="150%" height="150%">
      <feDropShadow dx="0" dy="18" stdDeviation="18" flood-color="#000" flood-opacity="0.34"/>
    </filter>
  </defs>

  <rect width="512" height="512" fill="url(#bg)"/>
  <circle cx="256" cy="256" r="222" fill="#d4b55c" opacity="0.08"/>
  <circle cx="256" cy="256" r="184" fill="none" stroke="#d4b55c" stroke-width="8" opacity="0.46"/>

  <g filter="url(#shadow)">
    <path d="M153 134h170c20 0 36 16 36 36v166c0 20-16 36-36 36H153c-20 0-36-16-36-36V170c0-20 16-36 36-36z" fill="#fff7e8"/>
    <path d="M150 192h104" stroke="#b28a2e" stroke-width="14" stroke-linecap="round"/>
    <path d="M150 238h150M150 278h112" stroke="#1a2035" stroke-width="10" stroke-linecap="round" opacity="0.18"/>
  </g>

  <g transform="translate(300 250) rotate(-10)" filter="url(#shadow)">
    <path d="M-22-40L78-78v148L-22 31z" fill="url(#gold)"/>
    <rect x="-72" y="-42" width="61" height="80" rx="14" fill="#fff0b8" stroke="#12182b" stroke-width="7"/>
    <rect x="-61" y="30" width="30" height="72" rx="14" fill="url(#gold)"/>
    <path d="M86-43c28 18 28 68 0 86" fill="none" stroke="#ff7166" stroke-width="14" stroke-linecap="round"/>
    <path d="M115-68c48 31 48 116 0 148" fill="none" stroke="#ff7166" stroke-width="10" stroke-linecap="round" opacity="0.72"/>
  </g>

  <g transform="translate(370 362) rotate(-8)">
    <rect x="-52" y="-28" width="104" height="56" rx="10" fill="none" stroke="#ff7166" stroke-width="8"/>
    <path d="M-27 0h54" stroke="#ff7166" stroke-width="7" stroke-linecap="round"/>
  </g>
</svg>
