<svg xmlns="http://www.w3.org/2000/svg" viewBox="0 0 512 512" width="512" height="512" role="img" aria-label="소소킹 판결소 마스커블 앱 아이콘">
  <defs>
    <linearGradient id="bg" x1="64" y1="40" x2="448" y2="472" gradientUnits="userSpaceOnUse">
      <stop offset="0" stop-color="#26365f"/>
      <stop offset="0.52" stop-color="#151b31"/>
      <stop offset="1" stop-color="#080b12"/>
    </linearGradient>
    <linearGradient id="gold" x1="134" y1="86" x2="390" y2="420" gradientUnits="userSpaceOnUse">
      <stop offset="0" stop-color="#fff0b8"/>
      <stop offset="0.45" stop-color="#d4b55c"/>
      <stop offset="1" stop-color="#8b5b12"/>
    </linearGradient>
    <filter id="shadow" x="-25%" y="-25%" width="150%" height="150%">
      <feDropShadow dx="0" dy="18" stdDeviation="18" flood-color="#000" flood-opacity="0.34"/>
    </filter>
  </defs>

  <rect width="512" height="512" fill="url(#bg)"/>
  <circle cx="256" cy="256" r="222" fill="#d4b55c" opacity="0.08"/>
  <circle cx="256" cy="256" r="184" fill="none" stroke="#d4b55c" stroke-width="8" opacity="0.46"/>

  <g filter="url(#shadow)">
    <path d="M154 145l34-48 41 38 17-59 17 59 41-38 34 48H154z" fill="url(#gold)"/>
    <path d="M160 158h172" stroke="#fff0b8" stroke-width="10" stroke-linecap="round" opacity="0.9"/>
  </g>

  <g transform="translate(256 292) rotate(-7)" filter="url(#shadow)">
    <rect x="-13" y="-82" width="26" height="164" rx="13" fill="url(#gold)"/>
    <rect x="-90" y="62" width="180" height="28" rx="14" fill="url(#gold)"/>
    <line x1="-122" y1="-72" x2="122" y2="-72" stroke="url(#gold)" stroke-width="20" stroke-linecap="round"/>
    <circle cx="0" cy="-72" r="22" fill="#fff0b8" stroke="#12182b" stroke-width="6"/>

    <path d="M-82-65l-42 90M-52-65l-72 90" stroke="#f0d483" stroke-width="8" stroke-linecap="round"/>
    <ellipse cx="-104" cy="47" rx="58" ry="18" fill="#f0d483"/>
    <circle cx="-124" cy="43" r="4" fill="#12182b" opacity="0.78"/>
    <circle cx="-91" cy="43" r="4" fill="#12182b" opacity="0.78"/>
    <path d="M-119 54q14 9 28 0" fill="none" stroke="#12182b" stroke-width="5" stroke-linecap="round" opacity="0.72"/>

    <path d="M82-65l26 64M52-65l56 64" stroke="#b88924" stroke-width="8" stroke-linecap="round" opacity="0.78"/>
    <ellipse cx="108" cy="21" rx="49" ry="15" fill="#b88924" opacity="0.68"/>
    <circle cx="96" cy="18" r="3.5" fill="#fff0b8" opacity="0.86"/>
    <circle cx="122" cy="18" r="3.5" fill="#fff0b8" opacity="0.86"/>
    <path d="M100 28q9 -6 18 0" fill="none" stroke="#fff0b8" stroke-width="4" stroke-linecap="round" opacity="0.84"/>
  </g>

  <path d="M385 160c15 11 12 31-6 36 8-14 3-23-9-31 6-1 11-3 15-5z" fill="#4dabf7" opacity="0.85"/>
</svg>
