<svg xmlns="http://www.w3.org/2000/svg" viewBox="0 0 1200 630"><defs><linearGradient id="bg" x1="0" y1="0" x2="1" y2="1"><stop offset="0" stop-color="#eef4ff"/><stop offset="1" stop-color="#dbe8ff"/></linearGradient><linearGradient id="blue" x1="0" y1="0" x2="1" y2="1"><stop offset="0" stop-color="#6fa0ff"/><stop offset="1" stop-color="#2556e8"/></linearGradient><linearGradient id="coin" x1="0" y1="0" x2="1" y2="1"><stop offset="0" stop-color="#fff38a"/><stop offset="1" stop-color="#ffb020"/></linearGradient></defs><rect width="1200" height="630" fill="url(#bg)"/><circle cx="980" cy="120" r="220" fill="#c6d8ff" opacity=".55"/><circle cx="170" cy="520" r="180" fill="#fff" opacity=".55"/><g transform="translate(780 168)"><rect width="260" height="260" rx="64" fill="url(#blue)"/><circle cx="96" cy="132" r="58" fill="url(#coin)" stroke="#6b3b00" stroke-width="8"/><path d="M52 82l16-32 24 26 23-31 21 37z" fill="#ffe767" stroke="#6b3b00" stroke-width="6"/><path d="M70 128q10-10 20 0M104 128q10-10 20 0M84 154q14 16 30 0" fill="none" stroke="#2b1800" stroke-width="6" stroke-linecap="round"/><text x="177" y="154" text-anchor="middle" font-family="Arial,sans-serif" font-weight="900" font-size="48" fill="#fff">SSK</text></g><text x="92" y="182" font-family="Arial,sans-serif" font-size="42" font-weight="900" fill="#4f7cff">SOSOKING</text><text x="88" y="292" font-family="Arial,sans-serif" font-size="76" font-weight="900" fill="#151821">소소킹</text><text x="88" y="382" font-family="Arial,sans-serif" font-size="62" font-weight="900" fill="#ff5c7a">내일 일은 아무도 모른다</text><text x="92" y="462" font-family="Arial,sans-serif" font-size="30" font-weight="700" fill="#6f7787">오늘 뜬 이슈, 내일도 살아남을까?</text><rect x="92" y="505" width="330" height="58" rx="29" fill="#4f7cff"/><text x="257" y="544" text-anchor="middle" font-family="Arial,sans-serif" font-size="24" font-weight="900" fill="#fff">소소머니 예측 게임</text></svg>
