<svg xmlns="http://www.w3.org/2000/svg" viewBox="0 0 420 96" role="img" aria-labelledby="t d"><title id="t">소소킹</title><desc id="d">기억 조각과 왕관을 담은 소소킹 추억 아카이브 로고</desc><defs><linearGradient id="g" x1="0" y1="0" x2="1" y2="1"><stop stop-color="#ff9e62"/><stop offset="1" stop-color="#ef5f48"/></linearGradient></defs><g transform="translate(4 4)"><circle cx="44" cy="44" r="40" fill="url(#g)"/><path d="M24 50c7-19 30-27 49-12-8 1-14 5-20 10 9 2 15 8 18 17-14 10-38 8-47-15Z" fill="#fff"/><circle cx="42" cy="39" r="4" fill="#241f1b"/><path d="M23 27c12 1 22 7 27 17" fill="none" stroke="#fff" stroke-width="5" stroke-linecap="round"/><path d="M30 14 38 4l8 10 9-8 7 13H28Z" fill="#ffd35c" stroke="#241f1b" stroke-width="3" stroke-linejoin="round"/></g><g fill="#241f1b"><text x="104" y="53" font-family="Arial,'Noto Sans KR',sans-serif" font-size="44" font-weight="900" letter-spacing="-2">소소킹</text><text x="106" y="78" font-family="Arial,'Noto Sans KR',sans-serif" font-size="15" font-weight="700" fill="#776e66" letter-spacing="3">SOSOKING MEMORY ARCHIVE</text></g></svg>